{
  "accessors": [
    {
      "bufferView": 2,
      "componentType": 5126,
      "count": 53,
      "max": [
        1.667140007019043,
        0.2062986046075821,
        2.460340976715088
      ],
      "min": [
        1.429250955581665,
        -0.32642170786857605,
        2.2936389446258545
      ],
      "type": "VEC3"
    },
    {
      "bufferView": 2,
      "byteOffset": 636,
      "componentType": 5126,
      "count": 53,
      "max": [
        0.617713212966919,
        0.7447982430458069,
        0.7268096208572388
      ],
      "min": [
        -1.0,
        -0.7447982430458069,
        -0.9998847246170044
      ],
      "type": "VEC3"
    },
    {
      "bufferView": 1,
      "componentType": 5126,
      "count": 53,
      "max": [
        1.0,
        1.0
      ],
      "min": [
        0.0,
        0.0
      ],
      "type": "VEC2"
    },
    {
      "bufferView": 0,
      "componentType": 5125,
      "count": 96,
      "type": "SCALAR"
    },
    {
      "bufferView": 2,
      "byteOffset": 1272,
      "componentType": 5126,
      "count": 366,
      "max": [
        1.4319390058517456,
        0.8487468957901001,
        2.98209810256958
      ],
      "min": [
        -0.9892907738685608,
        -0.8455111980438232,
        1.0759190320968628
      ],
      "type": "VEC3"
    },
    {
      "bufferView": 2,
      "byteOffset": 5664,
      "componentType": 5126,
      "count": 366,
      "max": [
        1.0,
        1.0,
        1.0
      ],
      "min": [
        -1.0,
        -1.0,
        -1.0
      ],
      "type": "VEC3"
    },
    {
      "bufferView": 1,
      "byteOffset": 424,
      "componentType": 5126,
      "count": 366,
      "max": [
        1.0,
        1.0
      ],
      "min": [
        0.0,
        0.0
      ],
      "type": "VEC2"
    },
    {
      "bufferView": 0,
      "byteOffset": 384,
      "componentType": 5125,
      "count": 660,
      "type": "SCALAR"
    },
    {
      "bufferView": 2,
      "byteOffset": 10056,
      "componentType": 5126,
      "count": 286,
      "max": [
        1.4698090553283691,
        0.4446575939655304,
        2.9309780597686768
      ],
      "min": [
        0.6268388032913208,
        -0.5542975068092346,
        1.0968869924545288
      ],
      "type": "VEC3"
    },
    {
      "bufferView": 2,
      "byteOffset": 13488,
      "componentType": 5126,
      "count": 286,
      "max": [
        1.0,
        1.0,
        1.0
      ],
      "min": [
        -1.0,
        -1.0,
        -1.0
      ],
      "type": "VEC3"
    },
    {
      "bufferView": 1,
      "byteOffset": 3352,
      "componentType": 5126,
      "count": 286,
      "max": [
        1.0,
        1.0
      ],
      "min": [
        0.0,
        0.0
      ],
      "type": "VEC2"
    },
    {
      "bufferView": 0,
      "byteOffset": 3024,
      "componentType": 5125,
      "count": 528,
      "type": "SCALAR"
    },
    {
      "bufferView": 2,
      "byteOffset": 16920,
      "componentType": 5126,
      "count": 88,
      "max": [
        1.34210205078125,
        0.12233349680900574,
        3.3668150901794434
      ],
      "min": [
        0.9636934995651245,
        -0.3508993983268738,
        2.8346550464630127
      ],
      "type": "VEC3"
    },
    {
      "bufferView": 2,
      "byteOffset": 17976,
      "componentType": 5126,
      "count": 88,
      "max": [
        0.9709171056747437,
        0.9584882259368896,
        0.9864792227745056
      ],
      "min": [
        -0.9709171056747437,
        -0.9584882259368896,
        -0.9864078164100647
      ],
      "type": "VEC3"
    },
    {
      "bufferView": 1,
      "byteOffset": 5640,
      "componentType": 5126,
      "count": 88,
      "max": [
        1.0,
        1.0
      ],
      "min": [
        0.0,
        0.0
      ],
      "type": "VEC2"
    },
    {
      "bufferView": 0,
      "byteOffset": 5136,
      "componentType": 5125,
      "count": 168,
      "type": "SCALAR"
    },
    {
      "bufferView": 2,
      "byteOffset": 19032,
      "componentType": 5126,
      "count": 298,
      "max": [
        1.4741590023040771,
        0.30006828904151917,
        2.6823770999908447
      ],
      "min": [
        1.3443260192871094,
        -0.3982608914375305,
        2.42113995552063
      ],
      "type": "VEC3"
    },
    {
      "bufferView": 2,
      "byteOffset": 22608,
      "componentType": 5126,
      "count": 298,
      "max": [
        1.0,
        1.0,
        1.0
      ],
      "min": [
        -1.0,
        -1.0,
        -1.0
      ],
      "type": "VEC3"
    },
    {
      "bufferView": 1,
      "byteOffset": 6344,
      "componentType": 5126,
      "count": 298,
      "max": [
        1.0,
        1.0
      ],
      "min": [
        -1.0,
        0.0
      ],
      "type": "VEC2"
    },
    {
      "bufferView": 0,
      "byteOffset": 5808,
      "componentType": 5125,
      "count": 1200,
      "type": "SCALAR"
    },
    {
      "bufferView": 2,
      "byteOffset": 26184,
      "componentType": 5126,
      "count": 104,
      "max": [
        1.4717040061950684,
        0.2768841087818146,
        2.778564929962158
      ],
      "min": [
        1.4531550407409668,
        -0.3995968997478485,
        2.696202039718628
      ],
      "type": "VEC3"
    },
    {
      "bufferView": 2,
      "byteOffset": 27432,
      "componentType": 5126,
      "count": 104,
      "max": [
        1.0,
        0.9989193081855774,
        0.9968053102493286
      ],
      "min": [
        -1.0,
        -0.998915433883667,
        -0.9968053102493286
      ],
      "type": "VEC3"
    },
    {
      "bufferView": 1,
      "byteOffset": 8728,
      "componentType": 5126,
      "count": 104,
      "max": [
        1.0,
        1.0
      ],
      "min": [
        0.0,
        0.0
      ],
      "type": "VEC2"
    },
    {
      "bufferView": 0,
      "byteOffset": 10608,
      "componentType": 5125,
      "count": 216,
      "type": "SCALAR"
    },
    {
      "bufferView": 2,
      "byteOffset": 28680,
      "componentType": 5126,
      "count": 657,
      "max": [
        1.1373000144958496,
        1.704813003540039,
        5.978902816772461
      ],
      "min": [
        -1.4022589921951294,
        -1.8334850072860718,
        -0.639695405960083
      ],
      "type": "VEC3"
    },
    {
      "bufferView": 2,
      "byteOffset": 36564,
      "componentType": 5126,
      "count": 657,
      "max": [
        1.0,
        1.0,
        1.0
      ],
      "min": [
        -1.0,
        -1.0,
        -1.0
      ],
      "type": "VEC3"
    },
    {
      "bufferView": 1,
      "byteOffset": 9560,
      "componentType": 5126,
      "count": 657,
      "max": [
        1.0,
        1.0
      ],
      "min": [
        0.0,
        0.0
      ],
      "type": "VEC2"
    },
    {
      "bufferView": 0,
      "byteOffset": 11472,
      "componentType": 5125,
      "count": 1608,
      "type": "SCALAR"
    },
    {
      "bufferView": 2,
      "byteOffset": 44448,
      "componentType": 5126,
      "count": 631,
      "max": [
        0.5610167980194092,
        1.496345043182373,
        5.705759048461914
      ],
      "min": [
        -1.620980978012085,
        -1.6349550485610962,
        -0.6761618852615356
      ],
      "type": "VEC3"
    },
    {
      "bufferView": 2,
      "byteOffset": 52020,
      "componentType": 5126,
      "count": 631,
      "max": [
        1.0,
        1.0,
        1.0
      ],
      "min": [
        -1.0,
        -1.0,
        -1.0
      ],
      "type": "VEC3"
    },
    {
      "bufferView": 1,
      "byteOffset": 14816,
      "componentType": 5126,
      "count": 631,
      "max": [
        1.0,
        1.0
      ],
      "min": [
        0.0,
        0.0
      ],
      "type": "VEC2"
    },
    {
      "bufferView": 0,
      "byteOffset": 17904,
      "componentType": 5125,
      "count": 1536,
      "type": "SCALAR"
    },
    {
      "bufferView": 2,
      "byteOffset": 59592,
      "componentType": 5126,
      "count": 261,
      "max": [
        -1.0136970281600952,
        0.6350198984146118,
        4.850152969360352
      ],
      "min": [
        -1.7190639972686768,
        -0.631944477558136,
        3.9694550037384033
      ],
      "type": "VEC3"
    },
    {
      "bufferView": 2,
      "byteOffset": 62724,
      "componentType": 5126,
      "count": 261,
      "max": [
        0.9877772927284241,
        0.9945659041404724,
        1.0
      ],
      "min": [
        -0.9892299771308899,
        -0.9990211129188538,
        -1.0
      ],
      "type": "VEC3"
    },
    {
      "bufferView": 1,
      "byteOffset": 19864,
      "componentType": 5126,
      "count": 261,
      "max": [
        1.0,
        1.0
      ],
      "min": [
        0.0,
        0.0
      ],
      "type": "VEC2"
    },
    {
      "bufferView": 0,
      "byteOffset": 24048,
      "componentType": 5125,
      "count": 684,
      "type": "SCALAR"
    }
  ],
  "asset": {
    "extras": {
      "author": "andreamauricio61 (https://sketchfab.com/andreamauricio61)",
      "license": "SKETCHFAB Standard (https://sketchfab.com/licenses)",
      "source": "https://sketchfab.com/3d-models/baaren--super-bear-aventuremodelo-3d-748075d64fb044ea8b395f05608f743d",
      "title": "Baaren_ Super Bear Aventure,modelo 3d"
    },
    "generator": "Sketchfab-15.50.0",
    "version": "2.0"
  },
  "bufferViews": [
    {
      "buffer": 0,
      "byteLength": 26784,
      "name": "floatBufferViews",
      "target": 34963
    },
    {
      "buffer": 0,
      "byteLength": 21952,
      "byteOffset": 26784,
      "byteStride": 8,
      "name": "floatBufferViews",
      "target": 34962
    },
    {
      "buffer": 0,
      "byteLength": 65856,
      "byteOffset": 48736,
      "byteStride": 12,
      "name": "floatBufferViews",
      "target": 34962
    }
  ],
  "buffers": [
    {
      "byteLength": 114592,
      "uri": "scene.bin"
    }
  ],
  "materials": [
    {
      "doubleSided": true,
      "name": "Material",
      "pbrMetallicRoughness": {
        "metallicFactor": 0.0,
        "roughnessFactor": 0.6
      }
    },
    {
      "doubleSided": true,
      "name": "Material_1",
      "pbrMetallicRoughness": {
        "metallicFactor": 0.0,
        "roughnessFactor": 0.6
      }
    },
    {
      "doubleSided": true,
      "name": "Material_2",
      "pbrMetallicRoughness": {
        "metallicFactor": 0.0,
        "roughnessFactor": 0.6
      }
    },
    {
      "doubleSided": true,
      "name": "Material_3",
      "pbrMetallicRoughness": {
        "metallicFactor": 0.0,
        "roughnessFactor": 0.6
      }
    },
    {
      "doubleSided": true,
      "name": "Material_4",
      "pbrMetallicRoughness": {
        "metallicFactor": 0.0,
        "roughnessFactor": 0.6
      }
    },
    {
      "doubleSided": true,
      "name": "Material_5",
      "pbrMetallicRoughness": {
        "metallicFactor": 0.0,
        "roughnessFactor": 0.6
      }
    },
    {
      "doubleSided": true,
      "name": "Material_6",
      "pbrMetallicRoughness": {
        "metallicFactor": 0.0,
        "roughnessFactor": 0.6
      }
    },
    {
      "doubleSided": true,
      "name": "Material_7",
      "pbrMetallicRoughness": {
        "metallicFactor": 0.0,
        "roughnessFactor": 0.6
      }
    },
    {
      "doubleSided": true,
      "name": "Material_8",
      "pbrMetallicRoughness": {
        "metallicFactor": 0.0,
        "roughnessFactor": 0.6
      }
    }
  ],
  "meshes": [
    {
      "name": "Object_0",
      "primitives": [
        {
          "attributes": {
            "NORMAL": 1,
            "POSITION": 0,
            "TEXCOORD_0": 2
          },
          "indices": 3,
          "material": 3,
          "mode": 4
        }
      ]
    },
    {
      "name": "Object_1",
      "primitives": [
        {
          "attributes": {
            "NORMAL": 5,
            "POSITION": 4,
            "TEXCOORD_0": 6
          },
          "indices": 7,
          "material": 0,
          "mode": 4
        }
      ]
    },
    {
      "name": "Object_2",
      "primitives": [
        {
          "attributes": {
            "NORMAL": 9,
            "POSITION": 8,
            "TEXCOORD_0": 10
          },
          "indices": 11,
          "material": 1,
          "mode": 4
        }
      ]
    },
    {
      "name": "Object_3",
      "primitives": [
        {
          "attributes": {
            "NORMAL": 13,
            "POSITION": 12,
            "TEXCOORD_0": 14
          },
          "indices": 15,
          "material": 2,
          "mode": 4
        }
      ]
    },
    {
      "name": "Object_4",
      "primitives": [
        {
          "attributes": {
            "NORMAL": 17,
            "POSITION": 16,
            "TEXCOORD_0": 18
          },
          "indices": 19,
          "material": 4,
          "mode": 4
        }
      ]
    },
    {
      "name": "Object_5",
      "primitives": [
        {
          "attributes": {
            "NORMAL": 21,
            "POSITION": 20,
            "TEXCOORD_0": 22
          },
          "indices": 23,
          "material": 5,
          "mode": 4
        }
      ]
    },
    {
      "name": "Object_6",
      "primitives": [
        {
          "attributes": {
            "NORMAL": 25,
            "POSITION": 24,
            "TEXCOORD_0": 26
          },
          "indices": 27,
          "material": 6,
          "mode": 4
        }
      ]
    },
    {
      "name": "Object_7",
      "primitives": [
        {
          "attributes": {
            "NORMAL": 29,
            "POSITION": 28,
            "TEXCOORD_0": 30
          },
          "indices": 31,
          "material": 7,
          "mode": 4
        }
      ]
    },
    {
      "name": "Object_8",
      "primitives": [
        {
          "attributes": {
            "NORMAL": 33,
            "POSITION": 32,
            "TEXCOORD_0": 34
          },
          "indices": 35,
          "material": 8,
          "mode": 4
        }
      ]
    }
  ],
  "nodes": [
    {
      "children": [
        1
      ],
      "matrix": [
        1.0,
        0.0,
        0.0,
        0.0,
        0.0,
        2.220446049250313e-16,
        -1.0,
        0.0,
        0.0,
        1.0,
        2.220446049250313e-16,
        0.0,
        0.0,
        0.0,
        0.0,
        1.0
      ],
      "name": "Sketchfab_model"
    },
    {
      "children": [
        2,
        3,
        4,
        5,
        6,
        7,
        8,
        9,
        10
      ],
      "name": "3ed06502f5b447be9403a2a0c0469690.obj.cleaner.materialmerger.gles"
    },
    {
      "mesh": 0,
      "name": "Object_2"
    },
    {
      "mesh": 1,
      "name": "Object_3"
    },
    {
      "mesh": 2,
      "name": "Object_4"
    },
    {
      "mesh": 3,
      "name": "Object_5"
    },
    {
      "mesh": 4,
      "name": "Object_6"
    },
    {
      "mesh": 5,
      "name": "Object_7"
    },
    {
      "mesh": 6,
      "name": "Object_8"
    },
    {
      "mesh": 7,
      "name": "Object_9"
    },
    {
      "mesh": 8,
      "name": "Object_10"
    }
  ],
  "scene": 0,
  "scenes": [
    {
      "name": "Sketchfab_Scene",
      "nodes": [
        0
      ]
    }
  ]
}
